<?xml version="1.0" encoding="utf-8"?>
<!-- Generator: Adobe Illustrator 16.0.0, SVG Export Plug-In . SVG Version: 6.00 Build 0)  -->
<!DOCTYPE svg PUBLIC "-//W3C//DTD SVG 1.1//EN" "http://www.w3.org/Graphics/SVG/1.1/DTD/svg11.dtd">
<svg version="1.1" id="Layer_1" xmlns="http://www.w3.org/2000/svg" xmlns:xlink="http://www.w3.org/1999/xlink" x="0px" y="0px"
	 width="64px" height="64px" viewBox="0 0 64 64" enable-background="new 0 0 64 64" xml:space="preserve">
<g>
	<path fill="#1E283C" d="M0.282,47.523c0,0.616,0.492,1.17,1.17,1.17h24.625c0.615,0,1.169-0.554,1.169-1.17v-5.541
		c0-0.615-0.554-1.171-1.169-1.171H15.242c2.894-4.062,7.941-10.65,9.912-14.159c1.478-2.894,2.4-4.74,2.4-8.003
		c0-6.834-5.171-12.436-13.975-12.436c-7.326,0-12.312,6.034-12.312,6.034c-0.431,0.493-0.37,1.231,0.062,1.601l3.756,3.817
		c0.492,0.492,1.231,0.492,1.723,0c1.17-1.293,3.448-3.079,5.972-3.079c3.448,0,5.418,2.093,5.418,4.433
		c0,1.724-0.801,3.447-1.601,4.679C12.964,29.239,3.853,41.613,0.282,46.292V47.523z"/>
	<path fill="#1E283C" d="M39.138,41.247l9.788-11.653v11.653H39.138z M30.641,48.68H48.68v7.509c0,0.616,0.554,1.171,1.17,1.171
		h6.587c0.616,0,1.169-0.555,1.169-1.171l-0.061-7.572h4.864c0.676,0,1.169-0.553,1.169-1.168v-5.11
		c0-0.616-0.493-0.905-1.169-0.905h-4.864l-0.062-25.445c0-0.677-0.554-1.17-1.171-1.17h-4.432c-0.554,0-0.738,0.186-0.924,0.37
		L29.472,41.186v6.323C29.472,48.124,29.964,48.68,30.641,48.68"/>
</g>
</svg>
